<svg xmlns="http://www.w3.org/2000/svg" viewBox="0 0 64 64" fill="none">
  <rect width="64" height="64" rx="14" fill="#24352A"/>
  <rect x="5" y="5" width="54" height="54" rx="11" stroke="#C4A15A" stroke-width="1" opacity="0.75"/>
  <path d="M32 16 V46" stroke="#EFE6D4" stroke-width="2.8" stroke-linecap="round"/>
  <path d="M32 17 L32 5" stroke="#EFE6D4" stroke-width="1.8" stroke-linecap="round"/>
  <path d="M32 17 L21 8" stroke="#EFE6D4" stroke-width="1.8" stroke-linecap="round"/>
  <path d="M32 17 L43 8" stroke="#EFE6D4" stroke-width="1.8" stroke-linecap="round"/>
  <path d="M32 17 L14 18" stroke="#EFE6D4" stroke-width="1.8" stroke-linecap="round"/>
  <path d="M32 17 L50 18" stroke="#EFE6D4" stroke-width="1.8" stroke-linecap="round"/>
  <path d="M32 24 L20 16" stroke="#EFE6D4" stroke-width="1.8" stroke-linecap="round"/>
  <path d="M32 24 L44 16" stroke="#EFE6D4" stroke-width="1.8" stroke-linecap="round"/>
  <circle cx="32" cy="17" r="1.7" fill="#C4A15A"/>
  <path d="M16 52 H48" stroke="#EFE6D4" stroke-width="1.4" stroke-linecap="round" opacity="0.45"/>
  <path d="M20 52 C18 43 16 36 18 30" stroke="#C4A15A" stroke-width="1.6" stroke-linecap="round"/>
  <path d="M26 52 C24 41 22 33 24 27" stroke="#C4A15A" stroke-width="1.6" stroke-linecap="round"/>
  <path d="M38 52 C40 41 42 33 44 27" stroke="#C4A15A" stroke-width="1.6" stroke-linecap="round"/>
  <path d="M44 52 C46 43 50 37 52 31" stroke="#C4A15A" stroke-width="1.6" stroke-linecap="round"/>
</svg>
